<svg version="1.0" xmlns="http://www.w3.org/2000/svg"
 width="2000.000000pt" height="2000.000000pt" viewBox="0 0 2000.000000 2000.000000"
 preserveAspectRatio="xMidYMid meet">

<g transform="translate(0.000000,2000.000000) scale(0.100000,-0.100000)"
fill="#000000" stroke="none">
<path d="M8965 15549 c-1749 -129 -3218 -1365 -3645 -3067 -39 -156 -77 -369
-102 -572 -17 -140 -17 -679 0 -825 61 -518 190 -962 408 -1399 208 -415 443
-738 778 -1071 647 -644 1445 -1029 2381 -1152 201 -26 749 -26 950 0 681 89
1266 309 1810 678 763 519 1341 1306 1601 2180 20 68 40 127 43 131 3 3 40 0
81 -9 94 -18 265 -12 331 11 95 35 158 115 180 230 10 54 19 68 134 193 70 77
93 87 182 80 89 -7 152 -35 191 -85 16 -20 55 -86 87 -147 104 -197 169 -271
292 -332 135 -67 265 -56 337 28 74 87 74 189 0 349 -40 87 -49 121 -58 198
-19 174 26 332 125 439 80 87 116 212 89 309 -38 134 -239 244 -395 215 -114
-21 -174 -69 -307 -243 -144 -189 -272 -288 -374 -288 -40 0 -48 5 -142 95
l-99 96 -8 71 c-8 91 -36 165 -77 207 -67 69 -145 91 -326 91 -97 0 -134 3
-136 13 -2 6 -16 88 -30 180 -63 396 -182 767 -366 1142 -598 1215 -1762 2049
-3110 2229 -257 34 -570 44 -825 25z m705 -725 c1424 -163 2582 -1219 2874
-2619 54 -261 61 -337 61 -685 -1 -282 -4 -343 -22 -460 -117 -745 -429 -1367
-943 -1880 -541 -542 -1224 -869 -1995 -955 -152 -17 -515 -20 -666 -5 -1361
135 -2504 1084 -2874 2387 -93 330 -128 575 -128 918 0 257 16 421 63 655 220
1101 989 2019 2035 2433 505 200 1056 273 1595 211z m3975 -3020 c47 -31 59
-88 52 -257 -4 -84 -16 -228 -27 -322 -11 -93 -20 -228 -20 -300 0 -148 -14
-259 -35 -292 -39 -59 -143 -83 -287 -65 -50 6 -95 15 -100 20 -4 4 1 53 13
107 56 270 83 583 77 886 -5 257 -25 228 157 232 66 1 126 4 133 5 7 1 24 -5
37 -14z m1280 -35 c100 -45 129 -113 85 -200 -12 -22 -57 -88 -101 -147 -94
-126 -116 -180 -131 -316 -10 -93 -9 -108 11 -186 12 -47 43 -130 68 -184 78
-168 68 -236 -33 -236 -62 0 -153 49 -208 112 -24 27 -74 107 -111 179 -112
211 -191 280 -338 295 l-68 6 7 42 c4 22 6 66 5 97 l-1 56 48 7 c26 3 79 21
117 40 107 52 181 121 302 281 70 92 142 162 175 169 52 11 65 12 98 8 19 -2
53 -13 75 -23z"/>
<path d="M9000 14363 c-183 -27 -246 -39 -366 -68 -651 -159 -1220 -496 -1300
-771 -15 -52 -15 -59 1 -101 14 -35 25 -48 54 -60 49 -21 107 -2 136 45 11 18
38 60 59 94 138 213 713 495 1238 607 210 45 298 55 505 55 195 1 203 2 224
23 13 13 22 34 22 52 0 90 -128 131 -398 129 -82 0 -161 -2 -175 -5z"/>
<path d="M9495 12555 c-273 -25 -464 -58 -500 -87 -33 -26 -33 -63 1 -85 24
-16 37 -15 222 3 244 24 932 27 1152 6 527 -52 928 -149 1210 -293 161 -82
269 -186 286 -275 14 -77 -47 -170 -165 -248 -95 -63 -131 -80 -380 -181 -250
-101 -279 -121 -247 -169 15 -23 23 -26 76 -26 175 0 467 103 655 230 253 171
310 404 148 605 -218 269 -827 468 -1608 525 -189 13 -677 11 -850 -5z"/>
<path d="M9090 12294 c-83 -12 -112 -22 -230 -80 -126 -63 -141 -73 -230 -163
-127 -127 -163 -184 -196 -307 -23 -86 -26 -112 -21 -199 7 -137 26 -186 90
-236 216 -171 577 -193 900 -55 36 16 38 16 28 -1 -54 -101 -339 -192 -603
-193 -31 0 -60 -5 -64 -11 -12 -20 21 -37 121 -63 84 -22 121 -26 240 -26 164
0 230 10 334 51 219 88 317 154 431 294 97 120 122 246 81 398 -30 111 -76
144 -322 236 -137 51 -241 73 -404 87 -120 9 -306 -22 -429 -73 -32 -13 -60
-22 -62 -20 -10 10 82 80 153 116 170 85 208 94 408 99 150 3 202 0 308 -17
151 -25 177 -26 177 -7 0 21 -146 101 -237 132 -168 55 -289 65 -473 38z m191
-590 c82 -42 75 -192 -12 -236 -99 -51 -224 25 -205 125 18 97 132 156 217
111z"/>
<path d="M7060 11664 c-198 -94 -418 -279 -476 -399 -24 -51 -29 -72 -29 -140
0 -94 20 -141 89 -210 182 -182 687 -284 1401 -285 564 0 1274 79 1362 151 22
19 15 57 -13 75 -22 15 -47 16 -222 10 -108 -4 -264 -13 -347 -21 -422 -40
-1067 -45 -1375 -10 -358 39 -630 127 -700 225 -25 34 -26 90 -3 138 31 68
159 183 315 286 81 53 154 106 163 118 34 49 6 98 -56 98 -19 0 -68 -16 -109
-36z"/>
<path d="M11849 10448 c-268 -386 -546 -639 -994 -907 -368 -219 -760 -381
-1080 -446 -160 -33 -303 -36 -422 -10 -95 21 -134 12 -158 -36 -20 -38 -19
-58 5 -97 36 -59 168 -102 315 -102 488 0 1293 343 1885 804 125 98 329 296
401 391 146 191 193 383 102 424 -32 14 -28 16 -54 -21z"/>
<path d="M9440 8623 c0 -13 29 -38 35 -31 3 3 -4 13 -15 23 -11 10 -20 13 -20
8z"/>
<path d="M14622 11410 c-18 -11 -56 -39 -84 -61 -29 -22 -78 -54 -110 -70 -93
-47 -100 -79 -30 -153 27 -28 67 -83 90 -123 46 -79 82 -113 119 -113 62 0 96
50 86 130 -9 77 15 217 44 250 16 20 23 40 23 72 0 80 -66 112 -138 68z"/>
<path d="M15565 11221 c-42 -4 -86 -15 -111 -28 -61 -32 -162 -137 -189 -195
-84 -182 3 -406 191 -489 96 -43 198 -9 294 98 130 147 143 301 42 503 -52
105 -89 123 -227 111z"/>
<path d="M15962 10244 c-73 -36 -167 -130 -200 -200 -23 -51 -27 -72 -27 -149
0 -77 4 -98 27 -147 56 -120 172 -208 273 -208 140 0 305 176 322 343 11 107
-54 296 -123 356 -33 30 -38 31 -127 31 -80 0 -100 -4 -145 -26z"/>
<path d="M15978 9040 c-49 -5 -78 -14 -110 -35 -60 -40 -142 -124 -166 -171
-28 -56 -45 -147 -37 -207 19 -157 176 -317 310 -317 56 0 120 34 185 100 140
139 165 285 83 485 -32 78 -68 124 -109 141 -35 15 -49 15 -156 4z"/>
<path d="M15493 7941 c-61 -6 -81 -13 -127 -45 -73 -50 -142 -126 -169 -184
-18 -38 -22 -65 -22 -147 0 -90 3 -105 28 -154 65 -123 167 -196 272 -196 77
0 123 23 197 97 64 66 102 136 120 220 16 75 -7 183 -61 293 -56 112 -91 130
-238 116z"/>
<path d="M14575 7248 c-77 -28 -192 -137 -228 -216 -18 -38 -22 -66 -22 -147
0 -120 16 -162 94 -247 120 -131 253 -143 378 -34 60 53 118 144 138 221 18
63 18 72 2 152 -19 99 -67 210 -109 250 -28 26 -35 28 -126 30 -53 1 -110 -3
-127 -9z"/>
<path d="M13550 6638 c-83 -24 -217 -154 -247 -240 -28 -81 -24 -198 10 -270
33 -75 106 -151 173 -184 46 -22 64 -26 118 -22 55 3 73 10 120 42 107 74 185
208 186 320 0 68 -20 154 -56 234 -28 63 -55 97 -96 118 -31 16 -154 18 -208
2z"/>
<path d="M12722 6121 c-71 -9 -142 -51 -212 -128 -67 -72 -94 -142 -94 -243
-1 -75 3 -93 30 -150 79 -164 242 -246 369 -185 106 51 213 206 223 322 9 116
-62 316 -130 366 -31 23 -94 29 -186 18z"/>
<path d="M11741 5449 c-49 -15 -107 -57 -169 -123 -76 -80 -96 -130 -97 -241
0 -78 4 -98 28 -150 48 -103 153 -192 247 -209 65 -11 133 18 210 91 128 120
164 239 121 398 -26 96 -76 191 -114 219 -23 17 -45 21 -110 23 -45 1 -97 -2
-116 -8z"/>
<path d="M10923 4649 c-92 -18 -236 -155 -267 -253 -26 -82 -19 -203 16 -271
54 -104 149 -183 241 -199 24 -5 58 -1 92 9 112 32 242 194 260 322 9 69 -17
183 -65 281 -34 68 -48 86 -80 102 -42 21 -118 25 -197 9z"/>
<path d="M10270 3911 c-41 -4 -85 -13 -97 -19 -45 -25 -143 -113 -172 -155
-120 -175 -52 -430 141 -526 109 -55 194 -36 296 66 74 74 120 163 129 246 8
74 -18 185 -65 277 -53 106 -89 123 -232 111z"/>
<path d="M9670 2951 c-53 -16 -95 -45 -160 -110 -91 -91 -114 -149 -108 -276
5 -107 30 -165 105 -242 127 -130 280 -125 403 14 93 106 128 206 110 319 -12
75 -58 200 -92 246 -11 17 -36 37 -54 44 -35 15 -161 18 -204 5z"/>
<path d="M9515 1891 c-33 -4 -75 -14 -92 -24 -60 -32 -161 -136 -190 -195 -25
-50 -28 -68 -28 -152 0 -84 3 -102 28 -153 34 -69 107 -146 168 -178 60 -31
148 -31 206 -1 105 55 208 203 220 314 11 112 -61 321 -127 368 -34 24 -97 31
-185 21z"/>
</g>
</svg>
